<svg width="164" height="60" viewBox="0 0 164 60" fill="none" xmlns="http://www.w3.org/2000/svg">
<path d="M152.594 25.3781C153.165 25.3781 153.628 25.8415 153.628 26.4122C153.628 26.9829 153.165 27.4463 152.594 27.4463C152.023 27.4463 151.56 26.9829 151.56 26.4122C151.56 25.8415 152.023 25.3781 152.594 25.3781ZM152.594 33.4829C153.099 33.4829 153.508 33.0735 153.508 32.5685C153.508 32.0635 153.099 31.6541 152.594 31.6541C152.089 31.6541 151.68 32.0635 151.68 32.5685C151.68 33.0735 152.089 33.4829 152.594 33.4829ZM154.388 21.1623C154.388 20.1713 153.585 19.3678 152.594 19.3678C151.603 19.3678 150.799 20.1713 150.799 21.1623C150.799 22.1533 151.603 22.9568 152.594 22.9568C153.585 22.9568 154.388 22.1533 154.388 21.1623ZM152.594 37.7571C151.829 37.7571 151.21 38.3766 151.21 39.1414C151.21 39.9062 151.829 40.5258 152.594 40.5258C153.359 40.5258 153.978 39.9062 153.978 39.1414C153.978 38.3766 153.359 37.7571 152.594 37.7571ZM148.773 19.9341C148.202 19.9341 147.739 20.3975 147.739 20.9682C147.739 21.5388 148.202 22.0022 148.773 22.0022C149.344 22.0022 149.807 21.5388 149.807 20.9682C149.807 20.3975 149.344 19.9341 148.773 19.9341ZM147.105 28.0323C147.677 28.0323 148.139 27.5689 148.139 26.9982C148.139 26.4275 147.677 25.9641 147.105 25.9641C146.534 25.9641 146.071 26.4275 146.071 26.9982C146.071 27.5689 146.535 28.0323 147.105 28.0323ZM145.141 27.3835C145.141 26.5165 144.438 25.8138 143.571 25.8138C142.704 25.8138 142.001 26.5165 142.001 27.3835C142.001 28.2505 142.704 28.9532 143.571 28.9532C144.438 28.9532 145.141 28.2505 145.141 27.3835ZM149.524 22.7634C148.613 22.7634 147.875 23.5019 147.875 24.4126C147.875 25.3234 148.613 26.0619 149.524 26.0619C150.435 26.0619 151.173 25.3234 151.173 24.4126C151.173 23.5019 150.435 22.7634 149.524 22.7634ZM149.4 32.9385C148.036 32.9385 146.93 34.0448 146.93 35.4094C146.93 36.7741 148.036 37.8804 149.4 37.8804C150.765 37.8804 151.871 36.7741 151.871 35.4094C151.871 34.0448 150.765 32.9385 149.4 32.9385ZM147.513 31.3534C147.513 30.3347 146.684 29.5064 145.666 29.5064C144.647 29.5064 143.819 30.3347 143.819 31.3534C143.819 32.3722 144.647 33.2004 145.666 33.2004C146.684 33.2004 147.513 32.3722 147.513 31.3534ZM147.21 22.9568C147.21 21.814 146.284 20.8879 145.141 20.8879C143.998 20.8879 143.072 21.814 143.072 22.9568C143.072 24.0996 143.998 25.0256 145.141 25.0256C146.284 25.0256 147.21 24.0996 147.21 22.9568ZM150.069 31.6971C151.212 31.6971 152.138 30.7711 152.138 29.6283C152.138 28.4854 151.212 27.5594 150.069 27.5594C148.926 27.5594 148 28.4854 148 29.6283C148 30.7711 148.926 31.6971 150.069 31.6971ZM156.416 22.003C156.988 22.003 157.451 21.5396 157.451 20.9689C157.451 20.3982 156.987 19.9348 156.416 19.9348C155.846 19.9348 155.382 20.3982 155.382 20.9689C155.382 21.5396 155.845 22.003 156.416 22.003ZM157.05 26.9982C157.05 27.5696 157.513 28.0323 158.084 28.0323C158.655 28.0323 159.118 27.5689 159.118 26.9982C159.118 26.4275 158.655 25.9641 158.084 25.9641C157.513 25.9641 157.05 26.4275 157.05 26.9982ZM161.619 25.8138C160.752 25.8138 160.049 26.5165 160.049 27.3835C160.049 28.2505 160.752 28.9532 161.619 28.9532C162.486 28.9532 163.189 28.2505 163.189 27.3835C163.189 26.5165 162.486 25.8138 161.619 25.8138ZM155.666 26.0619C156.577 26.0619 157.315 25.3234 157.315 24.4126C157.315 23.5019 156.577 22.7634 155.666 22.7634C154.756 22.7634 154.017 23.5019 154.017 24.4126C154.017 25.3234 154.756 26.0619 155.666 26.0619ZM155.79 32.9385C154.425 32.9385 153.319 34.0448 153.319 35.4094C153.319 36.7741 154.425 37.8804 155.79 37.8804C157.154 37.8804 158.261 36.7741 158.261 35.4094C158.261 34.0448 157.154 32.9385 155.79 32.9385ZM159.524 29.5071C158.506 29.5071 157.677 30.3354 157.677 31.3541C157.677 32.3729 158.506 33.2012 159.524 33.2012C160.543 33.2012 161.372 32.3729 161.372 31.3541C161.372 30.3354 160.543 29.5071 159.524 29.5071ZM160.048 25.0264C161.191 25.0264 162.117 24.1003 162.117 22.9575C162.117 21.8147 161.191 20.8886 160.048 20.8886C158.906 20.8886 157.98 21.8147 157.98 22.9575C157.98 24.1003 158.906 25.0264 160.048 25.0264ZM155.12 31.6979C156.263 31.6979 157.189 30.7718 157.189 29.629C157.189 28.4862 156.263 27.5601 155.12 27.5601C153.978 27.5601 153.051 28.4862 153.051 29.629C153.051 30.7718 153.978 31.6979 155.12 31.6979ZM46.4267 29.2035V37.4579H44.1192V35.6889C44.1192 35.586 44.0681 35.5094 43.9652 35.5094C43.8886 35.5094 43.8368 35.5605 43.7857 35.6378C42.8115 37.0477 41.1199 37.8169 39.4276 37.8169C36.8895 37.8169 35.1461 36.4836 35.1461 34.2024C35.1461 31.9212 36.761 30.5879 39.6326 30.1522L44.1192 29.4859V29.2043C44.1192 26.9996 42.6064 26.4355 41.017 26.4355C39.4276 26.4355 38.0177 27.1274 37.9148 28.5635L37.8892 28.897H35.5817L35.6073 28.5635C35.8123 25.6153 38.2731 24.3083 41.0936 24.3083C43.7594 24.3083 46.426 25.3847 46.426 29.205L46.4267 29.2035ZM44.1192 31.306L39.6845 31.9978C38.249 32.2284 37.4543 32.9976 37.4543 34.074C37.4543 35.1504 38.3775 35.7655 39.71 35.7655C42.0941 35.7655 43.812 34.2279 44.1192 31.306ZM57.3213 28.4606L60.3462 37.4586H62.6274L66.4725 24.6411H64.165L61.4219 33.947L58.3197 24.6411H56.269L53.2442 34.0236L50.2959 24.6411H47.9629L52.0904 37.4586H54.3979L57.3213 28.4606ZM20.2013 21.3338H17.8938V23.5639C17.8938 24.3586 17.3807 24.7177 16.5349 24.7177H15.125V26.8201H17.8938V33.4084C17.8938 36.1261 19.0731 37.5104 22.149 37.5104H23.8406V35.3313H22.5329C20.6617 35.3313 20.1998 34.6395 20.1998 32.7166V26.8201H23.8399V24.6411H20.1998V21.3338H20.2013ZM7.33192 27.1529C4.12753 26.6143 3.10222 25.6919 3.10222 23.9741C3.10222 22.3846 4.43549 21.3082 7.22975 21.3082C9.61388 21.3082 11.0749 22.2825 11.2799 24.3842H13.6641C13.5356 20.7441 10.5618 19.1029 7.22975 19.1029C3.12776 19.1029 0.590377 21.1024 0.590377 24.0251C0.590377 26.6399 2.23088 28.5628 6.20443 29.2546C9.30665 29.7676 11.4084 30.4594 11.4084 32.5364C11.4084 34.6133 9.71678 35.6123 7.4859 35.6123C4.7938 35.6123 2.61547 34.741 2.35859 31.7672H0C0.179521 35.9969 3.30728 37.8432 7.4859 37.8432C10.4852 37.8432 13.9457 36.3567 13.9457 32.6392C13.9457 29.1269 11.4332 27.8454 7.33192 27.1529ZM27.0202 37.4586H29.3277V24.6411H27.0202V37.4586ZM32.0701 24.436C31.0193 24.436 30.2501 25.2562 30.2501 26.256C30.2501 27.2558 31.0193 28.025 32.0701 28.025C33.121 28.025 33.8901 27.2303 33.8901 26.256C33.8901 25.2818 33.121 24.436 32.0701 24.436ZM113.822 24.436C112.772 24.436 112.002 25.2562 112.002 26.256C112.002 27.2558 112.772 28.025 113.822 28.025C114.873 28.025 115.642 27.2303 115.642 26.256C115.642 25.2818 114.873 24.436 113.822 24.436ZM82.2391 30.9987C82.2391 34.9723 79.2653 37.8176 75.4712 37.8176C73.6512 37.8176 72.164 37.074 71.2415 35.9976C71.1905 35.921 71.1131 35.8947 71.062 35.8947C70.9591 35.8947 70.8825 35.9976 70.8825 36.1509V37.4586H68.575V19H70.8825V25.9729C70.8825 26.1269 70.9591 26.229 71.062 26.229C71.1386 26.229 71.1905 26.2035 71.2415 26.1269C72.1902 24.9731 73.6257 24.2295 75.4712 24.2295C79.5214 24.2295 82.2391 27.0493 82.2391 30.9973V30.9987ZM79.8294 30.9987C79.8294 28.1016 77.8809 26.41 75.3946 26.41C72.5237 26.41 70.8825 28.3585 70.8825 30.9987C70.8825 33.639 72.523 35.6386 75.3946 35.6386C77.8816 35.6386 79.8294 33.8696 79.8294 30.9987ZM126.691 24.6411L123.025 34.2798L119.308 24.6411H116.847L121.872 37.1769L121.667 37.6637C121.385 38.3817 120.667 38.689 119.539 38.689H118V40.8936H119.539C121.846 40.8936 122.948 40.201 123.717 38.2533L129.152 24.6411H126.691ZM108.772 37.4586H111.079V24.6411H108.772V37.4586ZM97.0817 31.152C97.0817 31.3826 97.0817 31.5877 97.0561 31.8183H86.5454C86.8015 34.2024 88.2888 35.6378 90.9035 35.6378C92.7746 35.6378 94.0057 34.7147 94.6975 33.6383L96.3125 34.9198C95.4149 36.4063 93.5183 37.8169 90.9035 37.8169C86.3148 37.8169 84.1102 34.8431 84.1102 31.0236C84.1102 27.204 86.6994 24.2557 90.7495 24.2557C94.7997 24.2557 97.0817 27.409 97.0817 31.152ZM94.6465 29.7676C94.518 27.7681 93.1599 26.4348 90.7495 26.4348C88.5194 26.4348 87.0321 27.7163 86.622 29.7676H94.6465ZM99.5432 37.4586H101.851V24.6411H99.5432V37.4586ZM104.593 24.436C103.542 24.436 102.773 25.2562 102.773 26.256C102.773 27.2558 103.542 28.025 104.593 28.025C105.644 28.025 106.413 27.2303 106.413 26.256C106.413 25.2818 105.644 24.436 104.593 24.436Z" fill="black"/>
</svg>